<svg xmlns="http://www.w3.org/2000/svg" width="666.667" height="666.667" preserveAspectRatio="xMidYMid meet" version="1.0" viewBox="0 0 500 500"><metadata>Created by potrace 1.14, written by Peter Selinger 2001-2017</metadata><g fill="#000" stroke="none"><path d="M2376 4990 c-2 -3 -4 -43 -5 -90 -4 -125 -7 -170 -13 -175 -4 -4 -136 -12 -243 -14 l-40 -1 0 -265 c0 -258 0 -265 -20 -266 -11 0 -29 -2 -40 -4 -11 -2 -38 -6 -61 -10 -22 -3 -52 -8 -66 -10 -14 -3 -40 -7 -59 -9 l-34 -3 -2 -533 c-1 -377 -5 -536 -13 -544 -6 -6 -54 -12 -118 -12 -59 -1 -114 -2 -122 -3 -12 -1 -16 -24 -18 -133 -2 -73 -6 -136 -10 -140 -4 -4 -63 -9 -132 -13 -69 -4 -126 -7 -127 -9 -1 -1 -5 -58 -8 -126 -4 -69 -9 -127 -12 -130 -2 -2 -64 -5 -138 -5 -73 0 -136 -2 -138 -5 -4 -4 -13 -152 -16 -256 -1 -22 -1 -22 -209 -28 -28 -1 -44 -6 -46 -16 -3 -8 -4 -62 -4 -119 1 -126 -3 -131 -106 -132 -63 -1 -117 -4 -138 -8 -5 0 -8 -63 -8 -140 l0 -138 267 -2 c147 -1 268 -3 271 -5 2 -2 3 -61 3 -130 -1 -113 1 -126 16 -127 10 0 70 0 133 1 l115 1 0 -146 c0 -123 2 -145 15 -146 8 0 74 -1 145 -1 l130 1 0 -125 c0 -104 2 -124 15 -125 8 0 24 -2 35 -4 11 -2 49 -7 85 -10 115 -11 120 -13 121 -48 0 -18 2 -40 4 -49 2 -9 6 -53 9 -99 4 -45 9 -85 11 -88 2 -4 64 -6 138 -6 l135 0 -1 -132 c0 -73 2 -135 5 -138 6 -7 39 -11 154 -20 106 -9 112 -10 118 -16 5 -4 19 -152 20 -206 1 -13 3 -24 6 -24 18 -4 232 -4 238 1 4 3 8 16 8 30 1 14 5 57 9 95 4 39 8 78 8 88 2 22 20 26 197 43 41 3 77 8 79 10 3 2 5 64 5 137 l1 132 130 0 130 0 5 145 5 145 140 0 140 0 1 105 c1 58 2 117 3 133 l1 27 118 -1 c64 0 123 0 130 0 9 1 12 37 12 145 l0 145 88 0 c48 -1 113 0 145 0 l57 1 0 130 0 130 123 1 c67 1 188 2 270 3 l147 0 0 146 0 146 -127 -1 c-71 -1 -134 0 -141 3 -9 3 -12 34 -11 111 0 58 0 116 0 128 -1 23 -3 23 -128 21 l-128 -1 -3 145 -3 146 -132 0 c-72 0 -138 1 -144 1 -10 1 -13 34 -13 131 0 97 -3 130 -12 131 -7 0 -67 1 -133 1 l-120 1 1 143 c1 99 -2 144 -10 145 -6 0 -71 1 -143 1 l-133 1 0 551 0 552 -132 -1 -133 0 -2 255 c-2 319 -1 297 -15 297 -7 1 -70 2 -140 3 -88 1 -128 6 -129 13 0 7 -1 69 -1 140 0 86 -4 127 -12 128 -38 4 -248 3 -250 -1z" transform="translate(0.000000,500.000000) scale(0.100000,-0.100000)"/></g></svg>